<svg width="17" height="29" viewBox="0 0 17 29" fill="none" xmlns="http://www.w3.org/2000/svg">
<path d="M13.0574 27.7712L0.770914 15.5212C0.625081 15.3753 0.522025 15.2173 0.461748 15.0472C0.400498 14.8771 0.369873 14.6948 0.369873 14.5003C0.369873 14.3059 0.400498 14.1236 0.461748 13.9535C0.522025 13.7833 0.625081 13.6253 0.770914 13.4795L13.0574 1.19303C13.3977 0.852756 13.823 0.682617 14.3334 0.682617C14.8438 0.682617 15.2813 0.864909 15.6459 1.22949C16.0105 1.59408 16.1928 2.01942 16.1928 2.50553C16.1928 2.99165 16.0105 3.41699 15.6459 3.78158L4.92717 14.5003L15.6459 25.2191C15.9862 25.5594 16.1563 25.9784 16.1563 26.4762C16.1563 26.9749 15.974 27.4066 15.6095 27.7712C15.2449 28.1357 14.8195 28.318 14.3334 28.318C13.8473 28.318 13.422 28.1357 13.0574 27.7712Z" fill="black"/>
</svg>
