<svg width="25" height="25" viewBox="0 0 25 25" fill="none" xmlns="http://www.w3.org/2000/svg">
<path d="M7.54736 18.4434V20.6934" stroke="#4A60A1" stroke-width="1.60606" stroke-linecap="round" stroke-linejoin="round"/>
<path d="M18.0474 18.4434V20.6934" stroke="#4A60A1" stroke-width="1.60606" stroke-linecap="round" stroke-linejoin="round"/>
<path d="M6.04736 10.1934V5.31836C6.04736 4.82108 6.24491 4.34417 6.59654 3.99253C6.94817 3.6409 7.42508 3.44336 7.92236 3.44336C8.41964 3.44336 8.89656 3.6409 9.24819 3.99253C9.59982 4.34417 9.79736 4.82108 9.79736 5.31836" stroke="#4A60A1" stroke-width="1.60606" stroke-linecap="round" stroke-linejoin="round"/>
<path d="M19.5474 9.44336H13.5474V13.9434H19.5474V9.44336Z" stroke="#4A60A1" stroke-width="1.60606" stroke-linecap="round" stroke-linejoin="round"/>
<path d="M19.5474 10.1934H22.5474C22.7463 10.1934 22.937 10.2724 23.0777 10.413C23.2183 10.5537 23.2974 10.7444 23.2974 10.9434V13.9434C23.2974 15.1368 22.8233 16.2814 21.9793 17.1253C21.1354 17.9693 19.9908 18.4434 18.7974 18.4434H6.79736C5.60389 18.4434 4.4593 17.9693 3.61538 17.1253C2.77147 16.2814 2.29736 15.1368 2.29736 13.9434V10.9434C2.29736 10.7444 2.37638 10.5537 2.51703 10.413C2.65769 10.2724 2.84845 10.1934 3.04736 10.1934H13.5474" stroke="#4A60A1" stroke-width="1.60606" stroke-linecap="round" stroke-linejoin="round"/>
</svg>
