<?xml version="1.0" encoding="utf-8"?>
<!-- Generator: Adobe Illustrator 26.0.3, SVG Export Plug-In . SVG Version: 6.00 Build 0)  -->
<svg version="1.1" id="Layer_1" xmlns="http://www.w3.org/2000/svg" xmlns:xlink="http://www.w3.org/1999/xlink" x="0px" y="0px"
	 viewBox="0 0 22.9 19.1" style="enable-background:new 0 0 22.9 19.1;" xml:space="preserve">
<style type="text/css">
	.st0{fill:none;stroke:#6D737A;stroke-width:1.6061;stroke-linecap:round;stroke-linejoin:round;}
</style>
<path class="st0" d="M6.2,15.9v2.3"/>
<path class="st0" d="M16.7,15.9v2.3"/>
<path class="st0" d="M4.7,7.6V2.8c0-0.5,0.2-1,0.5-1.3c0.4-0.4,0.8-0.5,1.3-0.5s1,0.2,1.3,0.5c0.4,0.4,0.5,0.8,0.5,1.3"/>
<path class="st0" d="M18.2,6.9h-6v4.5h6V6.9z"/>
<path class="st0" d="M18.2,7.6h3c0.2,0,0.4,0.1,0.5,0.2c0.1,0.1,0.2,0.3,0.2,0.5v3c0,1.2-0.5,2.3-1.3,3.2c-0.8,0.8-2,1.3-3.2,1.3
	h-12c-1.2,0-2.3-0.5-3.2-1.3c-0.8-0.8-1.3-2-1.3-3.2v-3C0.9,8.2,1,8,1.1,7.9c0.1-0.1,0.3-0.2,0.5-0.2h10.5"/>
</svg>
