<svg width="21" height="21" viewBox="0 0 21 21" fill="none" xmlns="http://www.w3.org/2000/svg">
<path d="M5.94107 7.10053C5.3957 7.10053 4.92899 6.90235 4.54095 6.50598C4.15225 6.11028 3.9579 5.63436 3.9579 5.07823C3.9579 4.52209 4.15225 4.04618 4.54095 3.65048C4.92899 3.25411 5.3957 3.05592 5.94107 3.05592C6.48644 3.05592 6.95314 3.25411 7.34118 3.65048C7.72988 4.04618 7.92423 4.52209 7.92423 5.07823C7.92423 5.63436 7.72988 6.11028 7.34118 6.50598C6.95314 6.90235 6.48644 7.10053 5.94107 7.10053ZM3.9579 20.2455C3.67695 20.2455 3.44129 20.1485 3.2509 19.9543C3.06118 19.7608 2.96632 19.5209 2.96632 19.2344C2.42095 19.2344 1.95424 19.0365 1.5662 18.6408C1.1775 18.2445 0.983154 17.7682 0.983154 17.2121V11.1451H3.9579V10.3868C3.9579 9.74638 4.17274 9.2071 4.60243 8.76894C5.03212 8.33077 5.56096 8.11169 6.18896 8.11169C6.51949 8.11169 6.82523 8.1791 7.10618 8.31392C7.38713 8.44874 7.64328 8.63412 7.87465 8.87005L9.26287 10.4373C9.39508 10.5722 9.52332 10.6986 9.6476 10.8165C9.77122 10.9345 9.9074 11.044 10.0561 11.1451H16.8485V2.90425C16.8485 2.66831 16.7658 2.46608 16.6006 2.29756C16.4353 2.12903 16.237 2.04477 16.0056 2.04477C15.9065 2.04477 15.8116 2.06566 15.721 2.10746C15.6298 2.14993 15.5429 2.21329 15.4603 2.29756L14.2208 3.5615C14.3034 3.84799 14.3199 4.13044 14.2704 4.40884C14.2208 4.68657 14.1216 4.94341 13.9729 5.17934L11.246 2.34811C11.4774 2.19644 11.7253 2.09937 11.9897 2.0569C12.2541 2.01511 12.5186 2.04477 12.783 2.14588L14.0225 0.881941C14.2869 0.6123 14.5883 0.401643 14.9268 0.24997C15.2659 0.0982973 15.6255 0.0224609 16.0056 0.0224609C16.7989 0.0224609 17.4682 0.300528 18.0136 0.856662C18.559 1.4128 18.8316 2.09532 18.8316 2.90425V11.1451H20.8148V17.2121C20.8148 17.7682 20.6208 18.2445 20.2327 18.6408C19.844 19.0365 19.377 19.2344 18.8316 19.2344C18.8316 19.5209 18.7364 19.7608 18.5461 19.9543C18.3563 20.1485 18.121 20.2455 17.8401 20.2455H3.9579Z" fill="#E53436"/>
</svg>
