<?xml version="1.0" encoding="utf-8"?>
<!-- Generator: Adobe Illustrator 26.0.3, SVG Export Plug-In . SVG Version: 6.00 Build 0)  -->
<svg version="1.1" id="Layer_1" xmlns="http://www.w3.org/2000/svg" xmlns:xlink="http://www.w3.org/1999/xlink" x="0px" y="0px"
	 viewBox="0 0 20.8 17.4" style="enable-background:new 0 0 20.8 17.4;" xml:space="preserve">
<style type="text/css">
	.st0{fill:none;stroke:#6D737A;stroke-width:1.6061;stroke-linecap:round;stroke-linejoin:round;}
</style>
<g>
	<path class="st0" d="M5.6,14.4v2"/>
	<path class="st0" d="M15.1,14.4v2"/>
	<path class="st0" d="M4.3,7V2.6c0-0.4,0.2-0.9,0.5-1.2C5.1,1,5.5,0.9,5.9,0.9c0.4,0,0.9,0.2,1.2,0.5c0.3,0.3,0.5,0.7,0.5,1.2"/>
	<path class="st0" d="M16.5,6.3H11v4.1h5.4V6.3z"/>
	<path class="st0" d="M16.5,7h2.7c0.2,0,0.4,0.1,0.5,0.2c0.1,0.1,0.2,0.3,0.2,0.5v2.7c0,1.1-0.4,2.1-1.2,2.9
		c-0.8,0.8-1.8,1.2-2.9,1.2H4.9c-1.1,0-2.1-0.4-2.9-1.2c-0.8-0.8-1.2-1.8-1.2-2.9V7.6c0-0.2,0.1-0.4,0.2-0.5C1.2,7,1.4,7,1.5,7H11"
		/>
</g>
</svg>
