<svg width="26" height="18" viewBox="0 0 26 18" fill="none" xmlns="http://www.w3.org/2000/svg">
<path d="M20.9697 2.81836H11.9697V10.6934H2.96973V0.568359H0.719727V17.4434H2.96973V14.0684H23.2197V17.4434H25.4697V7.31836C25.4697 6.12489 24.9956 4.98029 24.1517 4.13638C23.3078 3.29246 22.1632 2.81836 20.9697 2.81836ZM7.46973 9.56836C8.36483 9.56836 9.22328 9.21278 9.85621 8.57985C10.4891 7.94691 10.8447 7.08847 10.8447 6.19336C10.8447 5.29825 10.4891 4.43981 9.85621 3.80687C9.22328 3.17394 8.36483 2.81836 7.46973 2.81836C6.57462 2.81836 5.71618 3.17394 5.08324 3.80687C4.45031 4.43981 4.09473 5.29825 4.09473 6.19336C4.09473 7.08847 4.45031 7.94691 5.08324 8.57985C5.71618 9.21278 6.57462 9.56836 7.46973 9.56836Z" fill="#4A60A1"/>
</svg>
