<?xml version="1.0" encoding="utf-8"?>
<!-- Generator: Adobe Illustrator 26.0.3, SVG Export Plug-In . SVG Version: 6.00 Build 0)  -->
<svg version="1.1" id="Layer_1" xmlns="http://www.w3.org/2000/svg" xmlns:xlink="http://www.w3.org/1999/xlink" x="0px" y="0px"
	 viewBox="0 0 24.7 16.9" style="enable-background:new 0 0 24.7 16.9;" xml:space="preserve">
<style type="text/css">
	.st0{fill:#6D737A;}
</style>
<path class="st0" d="M20.2,2.3h-9v7.9h-9V0H0v16.9h2.3v-3.4h20.2v3.4h2.2V6.8c0-1.2-0.5-2.3-1.3-3.2C22.6,2.7,21.4,2.3,20.2,2.3z
	 M6.8,9c0.9,0,1.8-0.4,2.4-1c0.6-0.6,1-1.5,1-2.4s-0.4-1.8-1-2.4c-0.6-0.6-1.5-1-2.4-1c-0.9,0-1.8,0.4-2.4,1c-0.6,0.6-1,1.5-1,2.4
	s0.4,1.8,1,2.4C5,8.6,5.9,9,6.8,9z"/>
</svg>
