<svg width="29" height="20" viewBox="0 0 29 20" fill="none" xmlns="http://www.w3.org/2000/svg">
<path d="M23.517 3.03289H13.194V12.0655H2.87103V0.452148H0.290283V19.8077H2.87103V15.9366H26.0977V19.8077H28.6785V8.19438C28.6785 6.82547 28.1347 5.51263 27.1667 4.54466C26.1987 3.57669 24.8859 3.03289 23.517 3.03289ZM8.03252 10.7751C9.0592 10.7751 10.0438 10.3673 10.7698 9.6413C11.4958 8.91533 11.9036 7.93069 11.9036 6.90401C11.9036 5.87733 11.4958 4.89269 10.7698 4.16672C10.0438 3.44074 9.0592 3.03289 8.03252 3.03289C7.00583 3.03289 6.0212 3.44074 5.29522 4.16672C4.56925 4.89269 4.1614 5.87733 4.1614 6.90401C4.1614 7.93069 4.56925 8.91533 5.29522 9.6413C6.0212 10.3673 7.00583 10.7751 8.03252 10.7751Z" fill="#E53436"/>
</svg>
