<?xml version="1.0" encoding="utf-8"?>
<!-- Generator: Adobe Illustrator 26.0.3, SVG Export Plug-In . SVG Version: 6.00 Build 0)  -->
<svg version="1.1" id="Layer_1" xmlns="http://www.w3.org/2000/svg" xmlns:xlink="http://www.w3.org/1999/xlink" x="0px" y="0px"
	 viewBox="0 0 18 18" style="enable-background:new 0 0 18 18;" xml:space="preserve">
<style type="text/css">
	.st0{fill:#FFFFFF;}
</style>
<path class="st0" d="M12.9,0.7H5.1c-1.5,0-2.7,1.2-2.7,2.7v11.3c0,0.3,0.2,0.5,0.5,0.5h0.9V17c0,0.2,0.2,0.4,0.4,0.4h1.2
	c0.2,0,0.4-0.2,0.4-0.4v-1.7h6.4V17c0,0.2,0.2,0.4,0.4,0.4h1.2c0.2,0,0.4-0.2,0.4-0.4v-1.7h0.9c0.3,0,0.5-0.2,0.5-0.5V3.4
	C15.6,1.9,14.4,0.7,12.9,0.7z M4.8,13.5c-0.6,0-1.1-0.5-1.1-1.1s0.5-1.1,1.1-1.1s1.1,0.5,1.1,1.1S5.4,13.5,4.8,13.5z M13.2,13.5
	c-0.6,0-1.1-0.5-1.1-1.1s0.5-1.1,1.1-1.1s1.1,0.5,1.1,1.1S13.8,13.5,13.2,13.5z M14.3,8.8c0,0.1-0.1,0.2-0.2,0.2H3.9
	C3.8,9,3.7,8.9,3.7,8.8V3c0-0.5,0.4-0.9,0.9-0.9h8.8c0.5,0,0.9,0.4,0.9,0.9V8.8z"/>
</svg>
