<svg width="24" height="25" viewBox="0 0 24 25" fill="none" xmlns="http://www.w3.org/2000/svg">
    <path d="M1.5 11.56h21M21 17.56v2.25a.75.75 0 0 1-.75.75H18a.75.75 0 0 1-.75-.75v-2.25M6.75 17.56v2.25a.75.75 0 0 1-.75.75H3.75a.75.75 0 0 1-.75-.75v-2.25M6 14.56h1.5M16.5 14.56H18" stroke="#6D737A" stroke-width="1.606" stroke-linecap="round" stroke-linejoin="round"/>
    <path d="m21 11.56-2.803-6.3a.75.75 0 0 0-.684-.45H6.486a.75.75 0 0 0-.684.45L3 11.56v6h18v-6z" stroke="#6D737A" stroke-width="1.606" stroke-linecap="round" stroke-linejoin="round"/>
</svg>
