<svg width="24" height="25" viewBox="0 0 24 25" fill="none" xmlns="http://www.w3.org/2000/svg">
<path d="M1.5 11.6934H22.5" stroke="#4A60A1" stroke-width="1.60606" stroke-linecap="round" stroke-linejoin="round"/>
<path d="M21 17.6943V19.9443C21 20.1432 20.921 20.334 20.7803 20.4747C20.6397 20.6153 20.4489 20.6943 20.25 20.6943H18C17.8011 20.6943 17.6103 20.6153 17.4697 20.4747C17.329 20.334 17.25 20.1432 17.25 19.9443V17.6943" stroke="#4A60A1" stroke-width="1.60606" stroke-linecap="round" stroke-linejoin="round"/>
<path d="M6.75024 17.6943V19.9443C6.75024 20.1432 6.67123 20.334 6.53057 20.4747C6.38992 20.6153 6.19916 20.6943 6.00024 20.6943H3.75024C3.55133 20.6943 3.36057 20.6153 3.21991 20.4747C3.07926 20.334 3.00024 20.1432 3.00024 19.9443V17.6943" stroke="#4A60A1" stroke-width="1.60606" stroke-linecap="round" stroke-linejoin="round"/>
<path d="M6 14.6934H7.5" stroke="#4A60A1" stroke-width="1.60606" stroke-linecap="round" stroke-linejoin="round"/>
<path d="M16.5 14.6934H18" stroke="#4A60A1" stroke-width="1.60606" stroke-linecap="round" stroke-linejoin="round"/>
<path d="M21.0002 11.6934L18.1971 5.39336C18.139 5.26008 18.0433 5.14658 17.9218 5.06669C17.8003 4.98679 17.6582 4.94394 17.5127 4.94336H6.48774C6.34232 4.94394 6.20021 4.98679 6.0787 5.06669C5.9572 5.14658 5.86154 5.26008 5.80337 5.39336L3.00024 11.6934V17.6934H21.0002V11.6934Z" stroke="#4A60A1" stroke-width="1.60606" stroke-linecap="round" stroke-linejoin="round"/>
</svg>
