<?xml version="1.0" encoding="utf-8"?>
<!-- Generator: Adobe Illustrator 26.0.3, SVG Export Plug-In . SVG Version: 6.00 Build 0)  -->
<svg version="1.1" id="Layer_1" xmlns="http://www.w3.org/2000/svg" xmlns:xlink="http://www.w3.org/1999/xlink" x="0px" y="0px"
	 viewBox="0 0 22.8 17.5" style="enable-background:new 0 0 22.8 17.5;" xml:space="preserve">
<style type="text/css">
	.st0{fill:none;stroke:#6D737A;stroke-width:1.6061;stroke-linecap:round;stroke-linejoin:round;}
</style>
<path class="st0" d="M0.9,7.6h21"/>
<path class="st0" d="M20.4,13.6v2.2c0,0.2-0.1,0.4-0.2,0.5c-0.1,0.1-0.3,0.2-0.5,0.2h-2.2c-0.2,0-0.4-0.1-0.5-0.2
	c-0.1-0.1-0.2-0.3-0.2-0.5v-2.2"/>
<path class="st0" d="M6.2,13.6v2.2c0,0.2-0.1,0.4-0.2,0.5c-0.1,0.1-0.3,0.2-0.5,0.2H3.2c-0.2,0-0.4-0.1-0.5-0.2
	c-0.1-0.1-0.2-0.3-0.2-0.5v-2.2"/>
<path class="st0" d="M5.4,10.6h1.5"/>
<path class="st0" d="M15.9,10.6h1.5"/>
<path class="st0" d="M20.4,7.6l-2.8-6.3C17.6,1.2,17.5,1,17.3,1c-0.1-0.1-0.3-0.1-0.4-0.1h-11c-0.1,0-0.3,0-0.4,0.1
	C5.4,1,5.3,1.2,5.2,1.3L2.4,7.6v6h18V7.6z"/>
</svg>
