<?xml version="1.0" encoding="utf-8"?>
<!-- Generator: Adobe Illustrator 26.0.3, SVG Export Plug-In . SVG Version: 6.00 Build 0)  -->
<svg version="1.1" id="Layer_1" xmlns="http://www.w3.org/2000/svg" xmlns:xlink="http://www.w3.org/1999/xlink" x="0px" y="0px"
	 viewBox="0 0 20.7 18.2" style="enable-background:new 0 0 20.7 18.2;" xml:space="preserve">
<style type="text/css">
	.st0{fill:#E53436;}
</style>
<path class="st0" d="M10.4,2.1l8.2,8.2v5.8c0,0.5-0.2,1.1-0.6,1.5c-0.4,0.4-0.9,0.6-1.5,0.6H4.2c-0.5,0-1.1-0.2-1.5-0.6
	c-0.4-0.4-0.6-0.9-0.6-1.5v-5.8L10.4,2.1z"/>
<g>
	<path class="st0" d="M11.3,0.4c-0.3-0.3-0.6-0.4-1-0.4s-0.7,0.1-1,0.4L0.3,9.5C0.2,9.6,0.1,9.7,0.1,9.8c0,0.1-0.1,0.2-0.1,0.3
		c0,0.1,0,0.2,0.1,0.3c0,0.1,0.1,0.2,0.1,0.2c0.1,0.1,0.3,0.2,0.5,0.2c0.1,0,0.2,0,0.3-0.1s0.2-0.1,0.2-0.1l9.1-9.1l9.1,9.1
		c0.1,0.1,0.3,0.2,0.5,0.2s0.4-0.1,0.5-0.2c0.1-0.1,0.2-0.3,0.2-0.5c0-0.2-0.1-0.4-0.2-0.5l-3.2-3.2V1.8c0-0.2-0.1-0.4-0.2-0.5
		c-0.1-0.1-0.3-0.2-0.5-0.2h-1.4c-0.2,0-0.4,0.1-0.5,0.2c-0.1,0.1-0.2,0.3-0.2,0.5v1.8L11.3,0.4z"/>
</g>
</svg>
