<?xml version="1.0" encoding="utf-8"?>
<!-- Generator: Adobe Illustrator 26.0.3, SVG Export Plug-In . SVG Version: 6.00 Build 0)  -->
<svg version="1.1" id="Layer_1" xmlns="http://www.w3.org/2000/svg" xmlns:xlink="http://www.w3.org/1999/xlink" x="0px" y="0px"
	 viewBox="0 0 19 19" style="enable-background:new 0 0 19 19;" xml:space="preserve">
<style type="text/css">
	.st0{fill:#E4353C;}
</style>
<path class="st0" d="M0.2,4v10.9c0,1,0.4,2,1.1,2.7C2,18.4,3,18.8,4,18.8h10.9c0.5,0,1-0.1,1.5-0.3c0.5-0.2,0.9-0.5,1.3-0.8
	c0.4-0.4,0.6-0.8,0.8-1.3c0.2-0.5,0.3-1,0.3-1.5V4c0-0.5-0.1-1-0.3-1.5c-0.2-0.5-0.5-0.9-0.8-1.3c-0.4-0.4-0.8-0.6-1.3-0.8
	c-0.5-0.2-1-0.3-1.5-0.3H4c-1,0-2,0.4-2.7,1.1C0.6,2,0.2,3,0.2,4L0.2,4z M11.5,14.8c-1,0.4-2.1,0.4-3.2,0.2c-1.1-0.2-2-0.8-2.8-1.5
	c-0.8-0.8-1.3-1.7-1.5-2.8C3.8,9.6,3.8,8.5,4.2,7.5c0.3-0.8,0.7-1.5,1.3-2c0.6-0.6,1.3-1,2-1.3c1-0.4,2.1-0.4,3.2-0.2
	c1.1,0.2,2,0.8,2.8,1.5c0.8,0.8,1.3,1.7,1.5,2.8c0.2,1.1,0.2,2.2-0.2,3.2c-0.3,0.8-0.7,1.5-1.3,2C12.9,14.1,12.2,14.5,11.5,14.8z
	 M16,3.9c0,0.1-0.1,0.3-0.2,0.4c-0.1,0.1-0.2,0.2-0.3,0.2c-0.1,0-0.3,0-0.4,0c-0.1,0-0.3-0.1-0.3-0.2c0,0,0,0,0-0.1
	c-0.1-0.1-0.1-0.2-0.1-0.4c0-0.1,0-0.3,0.1-0.4c0.1-0.2,0.3-0.3,0.4-0.3c0.2,0,0.4,0,0.5,0.1c0.1,0.1,0.2,0.2,0.3,0.3
	C16,3.5,16,3.7,16,3.9C16,3.8,16,3.8,16,3.9L16,3.9z"/>
<g>
	<path class="st0" d="M9.5,5C8.6,5,7.7,5.2,7,5.7c-0.7,0.5-1.3,1.2-1.7,2C5,8.6,4.9,9.5,5.1,10.4c0.2,0.9,0.6,1.7,1.2,2.3
		c0.6,0.6,1.4,1.1,2.3,1.2s1.8,0.1,2.6-0.3s1.5-0.9,2-1.7c0.5-0.7,0.8-1.6,0.8-2.5c0-1.2-0.5-2.4-1.3-3.2C11.9,5.4,10.7,5,9.5,5z"/>
</g>
</svg>
