<?xml version="1.0" encoding="utf-8"?>
<!-- Generator: Adobe Illustrator 26.0.3, SVG Export Plug-In . SVG Version: 6.00 Build 0)  -->
<svg version="1.1" id="Layer_1" xmlns="http://www.w3.org/2000/svg" xmlns:xlink="http://www.w3.org/1999/xlink" x="0px" y="0px"
	 viewBox="0 0 20.2 18.4" style="enable-background:new 0 0 20.2 18.4;" xml:space="preserve">
<style type="text/css">
	.st0{fill:#E4353C;}
</style>
<path class="st0" d="M19.2,6.8c-0.4-0.5-1-1-1.6-1.2c-0.8-0.3-1.6-0.5-2.4-0.5c-0.9,0-1.7,0.2-2.5,0.5c-0.8,0.4-1.5,0.9-2,1.5
	c-0.2,0.3-0.4,0.2-0.4-0.2V6.2c0-0.2-0.1-0.3-0.2-0.5C9.9,5.6,9.7,5.5,9.5,5.5H7.1c-0.1,0-0.2,0-0.3,0.1c-0.1,0-0.2,0.1-0.2,0.1
	C6.6,5.7,6.6,5.8,6.5,5.9c0,0.1-0.1,0.2-0.1,0.3v11.6c0,0.1,0,0.2,0.1,0.3c0,0.1,0.1,0.2,0.1,0.2c0.1,0.1,0.1,0.1,0.2,0.1
	c0.1,0,0.2,0.1,0.3,0.1h2.7c0.2,0,0.3-0.1,0.5-0.2c0.1-0.1,0.2-0.3,0.2-0.5v-4c-0.1-1.2,0-2.3,0.3-3.5c0.2-0.6,0.6-1.1,1.1-1.5
	c0.5-0.4,1.2-0.6,1.9-0.6c0.5,0,1,0.1,1.4,0.4c0.4,0.3,0.7,0.7,0.8,1.1c0.2,1,0.3,2.1,0.3,3.2v4.9c0,0.2,0.1,0.3,0.2,0.5
	c0.1,0.1,0.3,0.2,0.5,0.2h2.7c0.2,0,0.3-0.1,0.5-0.2c0.1-0.1,0.2-0.3,0.2-0.5v-6.6c0-0.9,0-1.8-0.2-2.7C19.8,7.9,19.6,7.3,19.2,6.8z
	"/>
<g>
	<path class="st0" d="M0.7,3.7h2.7c0.2,0,0.3-0.1,0.5-0.2S4,3.2,4,3V0.7c0-0.2-0.1-0.3-0.2-0.5C3.7,0.1,3.5,0,3.3,0H0.7
		C0.5,0,0.3,0.1,0.2,0.2C0.1,0.3,0,0.5,0,0.7V3c0,0.1,0,0.2,0,0.3c0,0.1,0.1,0.2,0.1,0.2c0.1,0.1,0.1,0.1,0.2,0.1
		C0.5,3.7,0.6,3.7,0.7,3.7z"/>
</g>
<g>
	<path class="st0" d="M0.7,18.4h2.7c0.2,0,0.3-0.1,0.5-0.2C3.9,18.1,4,17.9,4,17.8V6.2C4,6,3.9,5.8,3.8,5.7C3.7,5.6,3.5,5.5,3.3,5.5
		H0.7c-0.2,0-0.3,0.1-0.5,0.2C0.1,5.8,0,6,0,6.2v11.6c0,0.2,0.1,0.3,0.2,0.5C0.3,18.4,0.5,18.4,0.7,18.4z"/>
</g>
</svg>
