<svg width="18" height="18" viewBox="0 0 18 18" fill="none" xmlns="http://www.w3.org/2000/svg">
<path d="M11.28 7.07961C12.84 7.07961 13.8 4.79961 13.8 3.35961C13.8 2.15961 13.2 0.719609 12 0.719609C10.44 0.719609 9.47996 2.99961 9.47996 4.43961C9.47996 5.63961 10.08 7.07961 11.28 7.07961ZM6.71996 7.07961C7.91996 7.07961 8.51996 5.63961 8.51996 4.43961C8.51996 2.87961 7.55996 0.599609 5.99996 0.599609C4.79996 0.599609 4.19996 2.03961 4.19996 3.23961C4.07996 4.79961 5.03996 7.07961 6.71996 7.07961ZM15.6 5.87961C14.04 5.87961 12.96 8.03961 12.96 9.59961C12.96 10.6796 13.44 11.7596 14.52 11.7596C16.08 11.7596 17.16 9.59961 17.16 8.03961C17.16 6.95961 16.56 5.87961 15.6 5.87961ZM5.15996 9.59961C5.15996 8.03961 3.95996 5.87961 2.51996 5.87961C1.43996 5.87961 0.959961 6.95961 0.959961 8.03961C0.959961 9.59961 2.15996 11.7596 3.59996 11.7596C4.67996 11.7596 5.15996 10.6796 5.15996 9.59961ZM8.99996 9.35961C6.59996 9.35961 3.35996 13.1996 3.35996 15.8396C3.35996 17.0396 4.19996 17.3996 5.15996 17.3996C6.59996 17.3996 7.67996 16.4396 8.99996 16.4396C10.2 16.4396 11.28 17.3996 12.6 17.3996C13.56 17.3996 14.64 17.1596 14.64 15.8396C14.64 13.1996 11.4 9.35961 8.99996 9.35961Z" fill="white"/>
</svg>
