<svg width="22" height="25" viewBox="0 0 22 25" fill="none" xmlns="http://www.w3.org/2000/svg">
<path d="M11 12.5C11.7563 12.5 12.4039 12.255 12.9429 11.765C13.481 11.2758 13.75 10.6875 13.75 10C13.75 9.3125 13.481 8.72375 12.9429 8.23375C12.4039 7.74458 11.7563 7.5 11 7.5C10.2437 7.5 9.59658 7.74458 9.0585 8.23375C8.5195 8.72375 8.25 9.3125 8.25 10C8.25 10.6875 8.5195 11.2758 9.0585 11.765C9.59658 12.255 10.2437 12.5 11 12.5ZM11 25C7.31042 22.1458 4.55492 19.4946 2.7335 17.0462C0.911167 14.5988 0 12.3333 0 10.25C0 7.125 1.10596 4.63542 3.31788 2.78125C5.52888 0.927083 8.08958 0 11 0C13.9104 0 16.4711 0.927083 18.6821 2.78125C20.894 4.63542 22 7.125 22 10.25C22 12.3333 21.0893 14.5988 19.2679 17.0462C17.4455 19.4946 14.6896 22.1458 11 25Z" fill="#E53436"/>
</svg>
