<?xml version="1.0" encoding="utf-8"?>
<!-- Generator: Adobe Illustrator 26.0.3, SVG Export Plug-In . SVG Version: 6.00 Build 0)  -->
<svg version="1.1" id="Layer_1" xmlns="http://www.w3.org/2000/svg" xmlns:xlink="http://www.w3.org/1999/xlink" x="0px" y="0px"
	 viewBox="0 0 26 26" style="enable-background:new 0 0 26 26;" xml:space="preserve">
<style type="text/css">
	.st0{fill:#E53436;}
	.st1{fill-rule:evenodd;clip-rule:evenodd;fill:#E53436;}
</style>
<path class="st0" d="M11.1,8.9c0.3-0.2,0.6-0.4,1-0.5v3.5c-0.4-0.1-0.7-0.3-1-0.5c-0.5-0.4-0.7-0.9-0.7-1.3
	C10.4,9.8,10.6,9.3,11.1,8.9z M13.9,17.6V14c0.4,0.1,0.8,0.3,1.2,0.5c0.5,0.4,0.7,0.9,0.7,1.2c0,0.4-0.2,0.8-0.7,1.2
	C14.7,17.3,14.4,17.5,13.9,17.6L13.9,17.6z"/>
<path class="st1" d="M13,0.8C6.3,0.8,0.8,6.3,0.8,13c0,6.7,5.5,12.2,12.2,12.2c6.7,0,12.2-5.5,12.2-12.2C25.2,6.3,19.7,0.8,13,0.8z
	 M13.9,5.5c0-0.2-0.1-0.5-0.3-0.7c-0.2-0.2-0.4-0.3-0.7-0.3s-0.5,0.1-0.7,0.3c-0.2,0.2-0.3,0.4-0.3,0.7v1C11.3,6.7,10.5,7,9.9,7.5
	C9,8.2,8.5,9.2,8.5,10.2c0,1,0.5,2,1.4,2.7c0.6,0.5,1.4,0.8,2.1,0.9v3.7c-0.4-0.1-0.8-0.3-1.2-0.5l-1.1-0.8
	c-0.1-0.1-0.2-0.1-0.3-0.2c-0.1,0-0.2,0-0.4,0c-0.2,0-0.5,0.2-0.6,0.4c-0.1,0.2-0.2,0.4-0.2,0.7c0,0.2,0.2,0.5,0.4,0.6l1.1,0.8
	c0.7,0.5,1.5,0.8,2.3,0.9v1c0,0.2,0.1,0.5,0.3,0.7c0.2,0.2,0.4,0.3,0.7,0.3s0.5-0.1,0.7-0.3c0.2-0.2,0.3-0.4,0.3-0.7v-1
	c0.8-0.1,1.6-0.4,2.3-0.9c0.9-0.7,1.5-1.7,1.5-2.7s-0.5-2-1.5-2.7c-0.7-0.5-1.5-0.8-2.3-0.9V8.4c0.4,0.1,0.7,0.3,1,0.5l0.5,0.4
	c0.2,0.2,0.4,0.2,0.7,0.2c0.2,0,0.5-0.2,0.6-0.3C16.9,9,17,8.8,17,8.5c0-0.2-0.2-0.5-0.3-0.6l-0.5-0.4c-0.6-0.5-1.4-0.8-2.1-0.9V5.5
	z"/>
</svg>
