<?xml version="1.0" encoding="utf-8"?>
<!-- Generator: Adobe Illustrator 26.0.3, SVG Export Plug-In . SVG Version: 6.00 Build 0)  -->
<svg version="1.1" id="Layer_1" xmlns="http://www.w3.org/2000/svg" xmlns:xlink="http://www.w3.org/1999/xlink" x="0px" y="0px"
	 viewBox="0 0 114.7 115" style="enable-background:new 0 0 114.7 115;" xml:space="preserve">
<style type="text/css">
	.st0{fill:#B2B2B2;}
	.st1{fill:none;stroke:#4A60A1;stroke-width:6;stroke-miterlimit:10;}
	.st2{fill:#4A60A1;}
</style>
<rect x="63.4" y="60.3" transform="matrix(0.6971 -0.717 0.717 0.6971 -28.2542 70.8682)" class="st0" width="12.7" height="17.1"/>
<circle class="st1" cx="38.3" cy="38.2" r="34.5"/>
<path class="st2" d="M112.3,104.1l-6.2,6.4c-2.5,2.5-6.5,2.6-9,0.1L68.7,82.9c-2.5-2.5-2.6-6.5-0.1-9l6.2-6.4c2.5-2.5,6.5-2.6,9-0.1
	l28.4,27.7C114.7,97.5,114.8,101.6,112.3,104.1z"/>
<ellipse class="st2" cx="29.3" cy="35.4" rx="4.1" ry="4.4"/>
<ellipse class="st2" cx="47.2" cy="35.4" rx="4.1" ry="4.4"/>
<path class="st2" d="M50.4,50c0-3.4-3.5-3.2-3.5-3.2s-15.8,0-18.1,0S26.1,50,26.1,50s0.8-1.4,12.2-1.4S50.4,50,50.4,50z"/>
<ellipse class="st2" cx="38.3" cy="111.6" rx="17.7" ry="2"/>
</svg>
