<svg width="22" height="18" viewBox="0 0 22 18" fill="none" xmlns="http://www.w3.org/2000/svg">
<path d="M21.359 2.02368C20.5677 2.36879 19.7308 2.59815 18.874 2.70468C19.7779 2.1695 20.454 1.3212 20.774 0.320678C19.9286 0.82209 19.0035 1.17518 18.039 1.36468C17.4476 0.73359 16.6801 0.2949 15.8361 0.105575C14.9922 -0.0837505 14.1108 -0.0149659 13.3064 0.303C12.5021 0.620967 11.8119 1.17342 11.3256 1.88863C10.8392 2.60384 10.5791 3.44876 10.579 4.31368C10.5757 4.64404 10.6092 4.97375 10.679 5.29668C8.96322 5.21264 7.28447 4.76739 5.75254 3.99005C4.22061 3.21271 2.87 2.12079 1.78902 0.785678C1.23382 1.73419 1.06157 2.85885 1.30744 3.93005C1.55331 5.00125 2.19876 5.93822 3.11202 6.54968C2.42917 6.53154 1.7607 6.34942 1.16302 6.01868V6.06568C1.16531 7.06141 1.51047 8.02598 2.14044 8.7971C2.77041 9.56822 3.64675 10.0988 4.62202 10.2997C4.25299 10.397 3.87265 10.4447 3.49102 10.4417C3.21682 10.4465 2.9429 10.4217 2.67402 10.3677C2.95351 11.2228 3.49103 11.9704 4.21268 12.5076C4.93432 13.0448 5.80466 13.3452 6.70402 13.3677C5.17743 14.5613 3.29484 15.2087 1.35702 15.2067C1.01131 15.2122 0.665596 15.1955 0.322021 15.1567C2.29411 16.4273 4.59206 17.0994 6.93802 17.0917C8.55286 17.1028 10.1538 16.7931 11.6479 16.1803C13.1421 15.5676 14.4995 14.6641 15.6416 13.5224C16.7836 12.3806 17.6874 11.0233 18.3005 9.52938C18.9136 8.03541 19.2238 6.43452 19.213 4.81968C19.213 4.62868 19.206 4.44468 19.197 4.26268C20.0479 3.65405 20.7805 2.89529 21.359 2.02368Z" fill="#E4353C"/>
</svg>
